# xmcd
#
# Track frame offsets: 
#        150
#        12403
#        22197
#        32343
#        45298
#        57905
#        67578
#        76010
#        83100
#        94342
#        103891
#        114499
#        127249
#        136643
#        146087
#        157954
#        169201
#        182030
#        194537
#        205509
#        216232
#        228540
#        238979
#        251092
#        263474
#        277252
#        288331
#        299852
#        312805
#        323562
#        333025
#        342848
#
# Disc length: 4727 seconds
#
# Revision: 0
# Processed by: cddbd v1.5.2PL0 Copyright (c) Steve Scherf et al.
# Submitted via: ExactAudioCopyFreeDBPlugin 1.0
#
DISCID=d3127520
DTITLE=Various Artist - Starday Custom Series #500 - 675 [CD5]
DYEAR=2017
DGENRE=Country
TTITLE0=Rod Burton - I'd Like To Be A Baby Sitter
TTITLE1=Rod Burton and Gwen Reynolds - (I'm Dolling You Up For) Somebody
TTITLE1=Else
TTITLE2=Frank Evans and The Top Notchers - Go On And Be Carefree
TTITLE3=Frank Evans and The Top Notchers - What Is It (That I'm Too Youn
TTITLE3=g To Know)
TTITLE4=Carl Tanner and Ineva Buckins - Together Me And You
TTITLE5=Carl Tanner and Ineva Buckins - We're In Love
TTITLE6=Cousin Arnold and His Country Cousins - What Is Life To You
TTITLE7=Cousin Arnold and His Country Cousins - Be My Baby, Baby Doll
TTITLE8=Arnold Parker and The Southernairs - People Laugh At A Fool
TTITLE9=Arnold Parker and The Southernairs - Find A New Woman
TTITLE10=Tom Harmon Trio - I'd Like To Know
TTITLE11=Tom Harmon Trio - God's Miracles
TTITLE12=Jack Frost and His Band - There Is No Tomorrow
TTITLE13=Jack Frost and His Band - Crying My Heart Out
TTITLE14=Lucky Chapman and The Ozark Mountain Boys - I've Waited So Long
TTITLE15=Lucky Chapman and The Ozark Mountain Boys - Blue Grass
TTITLE16=The Hodges Brothers - I'm Gonna Rock Some Too
TTITLE17=The Hodges Brothers - Because I Loved You So
TTITLE18=Lucky Wray - What-Cha Say Honey
TTITLE19=Lucky Wray - Got Another Baby
TTITLE20=Al Clauser and His Oklahoma Outlaws - Cloudy Love
TTITLE21=Al Clauser and His Oklahoma Outlaws - Who's Foolin Who
TTITLE22=Luke Gordon - Is It Wrong
TTITLE23=Luke Gordon - What Can You Do
TTITLE24=Cousin Arnold and His Country Cousins - Heart Of Fantasy
TTITLE25=Cousin Arnold and His Country Cousins - Sweet Talking Daddy
TTITLE26=Don Collins - Why Am I Lonely
TTITLE27=Don Collins - Too Late To Be Sorry
TTITLE28=Mack Banks and His Drifting Troubadours - You're So Dumb
TTITLE29=Mack Banks and His Drifting Troubadours - Be Boppin' Daddy
TTITLE30=Jimmy and Dorothy Blakley - No One But You
TTITLE31=Jimmy and Dorothy Blakley - Standing In Line (For Your Love)
EXTD=
EXTT0=
EXTT1=
EXTT2=
EXTT3=
EXTT4=
EXTT5=
EXTT6=
EXTT7=
EXTT8=
EXTT9=
EXTT10=
EXTT11=
EXTT12=
EXTT13=
EXTT14=
EXTT15=
EXTT16=
EXTT17=
EXTT18=
EXTT19=
EXTT20=
EXTT21=
EXTT22=
EXTT23=
EXTT24=
EXTT25=
EXTT26=
EXTT27=
EXTT28=
EXTT29=
EXTT30=
EXTT31=
PLAYORDER=
